<svg version="1.1" viewBox="0.0 0.0 529.1679790026246 744.4435695538058" fill="none" stroke="none" stroke-linecap="square" stroke-miterlimit="10" xmlns:xlink="http://www.w3.org/1999/xlink" xmlns="http://www.w3.org/2000/svg"><clipPath id="p.0"><path d="m0 0l529.16797 0l0 744.44354l-529.16797 0l0 -744.44354z" clip-rule="nonzero"/></clipPath><g clip-path="url(#p.0)"><path fill="#000000" fill-opacity="0.0" d="m0 0l529.16797 0l0 744.44354l-529.16797 0z" fill-rule="evenodd"/><path fill="#000000" fill-opacity="0.0" d="m9.771653 30.84252l1.2913389 689.16534" fill-rule="evenodd"/><path stroke="#000000" stroke-width="4.0" stroke-linejoin="round" stroke-linecap="butt" stroke-dasharray="16.0,12.0" d="m9.771653 30.84252l1.2913389 689.16534" fill-rule="evenodd"/><path fill="#000000" fill-opacity="0.0" d="m518.105 30.84252l1.2913208 689.16534" fill-rule="evenodd"/><path stroke="#000000" stroke-width="4.0" stroke-linejoin="round" stroke-linecap="butt" stroke-dasharray="16.0,12.0" d="m518.105 30.84252l1.2913208 689.16534" fill-rule="evenodd"/><path fill="#000000" fill-opacity="0.0" d="m493.51837 11.598425l-459.46457 -1.291338" fill-rule="evenodd"/><path stroke="#000000" stroke-width="4.0" stroke-linejoin="round" stroke-linecap="butt" stroke-dasharray="16.0,12.0" d="m493.51837 11.598425l-459.46457 -1.291338" fill-rule="evenodd"/><path fill="#000000" fill-opacity="0.0" d="m493.51837 734.1365l-459.46457 -1.2913208" fill-rule="evenodd"/><path stroke="#000000" stroke-width="4.0" stroke-linejoin="round" stroke-linecap="butt" stroke-dasharray="16.0,12.0" d="m493.51837 734.1365l-459.46457 -1.2913208" fill-rule="evenodd"/><path fill="#000000" fill-opacity="0.0" d="m24.984251 12.603675l-13.921259 11.11811" fill-rule="evenodd"/><path stroke="#000000" stroke-width="4.0" stroke-linejoin="round" stroke-linecap="butt" d="m24.984251 12.603675l-13.921259 11.11811" fill-rule="evenodd"/><path fill="#000000" fill-opacity="0.0" d="m516.30444 22.8084l-15.275574 -9.291339" fill-rule="evenodd"/><path stroke="#000000" stroke-width="4.0" stroke-linejoin="round" stroke-linecap="butt" d="m516.30444 22.8084l-15.275574 -9.291339" fill-rule="evenodd"/><path fill="#000000" fill-opacity="0.0" d="m24.984251 734.1365l-12.9448805 -9.070862" fill-rule="evenodd"/><path stroke="#000000" stroke-width="4.0" stroke-linejoin="round" stroke-linecap="butt" d="m24.984251 734.1365l-12.9448805 -9.070862" fill-rule="evenodd"/><path fill="#000000" fill-opacity="0.0" d="m518.0236 725.1601l-15.433075 8.881897" fill-rule="evenodd"/><path stroke="#000000" stroke-width="4.0" stroke-linejoin="round" stroke-linecap="butt" d="m518.0236 725.1601l-15.433075 8.881897" fill-rule="evenodd"/><path fill="#000000" fill-opacity="0.0" d="m145.15092 305.99213l238.86613 0l0 138.86615l-238.86613 0z" fill-rule="evenodd"/><path fill="#000000" d="m181.12305 326.8065q5.25 0 7.96875 2.078125q2.71875 2.0625 2.71875 6.375q0 2.65625 -1.21875 4.390625q-1.21875 1.734375 -3.421875 2.78125q3.125 0.9375 4.703125 3.171875q1.578125 2.21875 1.578125 5.53125q0 4.734375 -3.421875 7.34375q-3.421875 2.59375 -8.453125 2.59375l-16.828125 0l0 -34.265625l16.375 0zm-1.078125 13.875q2.015625 0 3.25 -1.03125q1.234375 -1.03125 1.234375 -3.046875q0 -2.015625 -1.265625 -2.96875q-1.265625 -0.96875 -3.734375 -0.96875l-7.234375 0l0 8.015625l7.75 0zm0.5 14.53125q2.5 0 3.921875 -1.09375q1.4375 -1.109375 1.4375 -3.40625q0 -2.421875 -1.34375 -3.65625q-1.34375 -1.25 -3.90625 -1.25l-8.359375 0l0 9.40625l8.25 0zm25.40625 -28.40625l0 21.515625q0 3.703125 1.6875 5.46875q1.703125 1.75 5.359375 1.75q3.9375 0 5.515625 -1.71875q1.59375 -1.734375 1.59375 -5.484375l0 -21.53125l7.515625 0l0 21.53125q0 6.375 -3.71875 9.96875q-3.703125 3.59375 -10.90625 3.59375q-7.234375 0 -10.921875 -3.53125q-3.671875 -3.53125 -3.671875 -10.03125l0 -21.53125l7.546875 0zm46.84375 0q4.15625 0 7.0 2.671875q2.84375 2.671875 2.84375 6.796875q0 3.234375 -1.34375 5.359375q-1.34375 2.109375 -4.09375 3.21875l0 0.09375q2.421875 0.625 3.703125 2.875q1.296875 2.25 1.40625 6.890625q0.09375 4.640625 1.34375 6.359375l-7.546875 0q-0.65625 -1.671875 -0.890625 -5.390625q-0.359375 -5.0625 -1.703125 -6.53125q-1.34375 -1.46875 -4.140625 -1.46875l-7.703125 0l0 13.390625l-7.546875 0l0 -34.265625l18.671875 0zm-2.71875 15.484375q2.375 0 3.6875 -1.140625q1.328125 -1.15625 1.328125 -3.75q0 -2.4375 -1.28125 -3.578125q-1.265625 -1.15625 -3.734375 -1.15625l-8.40625 0l0 9.625l8.40625 0zm26.210938 -15.484375l14.296875 22.984375l0.09375 0l0 -22.984375l7.046875 0l0 34.265625l-7.515625 0l-14.28125 -22.953125l-0.09375 0l0 22.953125l-7.046875 0l0 -34.265625l7.5 0zm53.71875 0l0 6.328125l-18.09375 0l0 7.328125l16.59375 0l0 5.859375l-16.59375 0l0 8.421875l18.46875 0l0 6.328125l-26.015625 0l0 -34.265625l25.640625 0zm20.476562 0q6.84375 0 11.078125 4.46875q4.25 4.453125 4.25 12.46875q0 8.015625 -4.15625 12.671875q-4.140625 4.65625 -11.171875 4.65625l-15.015625 0l0 -34.265625l15.015625 0zm-0.578125 27.9375q3.609375 0 5.984375 -2.59375q2.375 -2.59375 2.375 -7.71875q0 -5.9375 -2.484375 -8.609375q-2.484375 -2.6875 -7.1875 -2.6875l-5.578125 0l0 21.609375l6.890625 0z" fill-rule="nonzero"/><path fill="#000000" d="m198.7793 383.57837q5.828125 0 9.9375 3.296875q4.125 3.296875 4.828125 9.03125l-7.296875 0q-0.484375 -2.6875 -2.671875 -4.34375q-2.171875 -1.65625 -4.828125 -1.65625q-4.40625 0 -6.859375 3.234375q-2.4375 3.21875 -2.4375 8.53125q0 5.09375 2.421875 8.28125q2.421875 3.1875 6.90625 3.1875q3.25 0 5.265625 -2.0q2.015625 -2.015625 2.484375 -5.671875l7.3125 0q-0.65625 6.546875 -4.75 10.296875q-4.078125 3.734375 -10.3125 3.734375q-4.953125 0 -8.8125 -2.265625q-3.84375 -2.265625 -5.953125 -6.390625q-2.09375 -4.125 -2.09375 -9.171875q0 -7.890625 4.609375 -12.984375q4.625 -5.109375 12.25 -5.109375zm36.414062 0.828125l12.828125 34.234375l-7.828125 0l-2.578125 -7.609375l-12.828125 0l-2.6875 7.640625l-7.625 0l13.015625 -34.265625l7.703125 0zm-3.984375 8.4375l-4.453125 12.578125l8.890625 0l-4.3125 -12.578125l-0.125 0zm38.460938 -8.4375q4.15625 0 7.0 2.671875q2.84375 2.671875 2.84375 6.796875q0 3.234375 -1.34375 5.359375q-1.34375 2.109375 -4.09375 3.21875l0 0.09375q2.421875 0.625 3.703125 2.875q1.296875 2.25 1.40625 6.890625q0.09375 4.640625 1.34375 6.359375l-7.546875 0q-0.65625 -1.671875 -0.890625 -5.390625q-0.359375 -5.0625 -1.703125 -6.53125q-1.34375 -1.46875 -4.140625 -1.46875l-7.703125 0l0 13.390625l-7.546875 0l0 -34.265625l18.671875 0zm-2.71875 15.484375q2.375 0 3.6875 -1.140625q1.328125 -1.15625 1.328125 -3.75q0 -2.4375 -1.28125 -3.578125q-1.265625 -1.15625 -3.734375 -1.15625l-8.40625 0l0 9.625l8.40625 0zm33.726562 -15.484375q6.84375 0 11.078125 4.46875q4.25 4.453125 4.25 12.46875q0 8.015625 -4.15625 12.671875q-4.140625 4.65625 -11.171875 4.65625l-15.015625 0l0 -34.265625l15.015625 0zm-0.578125 27.9375q3.609375 0 5.984375 -2.59375q2.375 -2.59375 2.375 -7.71875q0 -5.9375 -2.484375 -8.609375q-2.484375 -2.6875 -7.1875 -2.6875l-5.578125 0l0 21.609375l6.890625 0zm32.953125 -28.765625q6.203125 0 9.953125 2.890625q3.75 2.875 3.75 8.15625l-7.28125 0q-0.171875 -2.578125 -1.765625 -3.875q-1.59375 -1.3125 -4.96875 -1.3125q-2.296875 0 -3.765625 1.015625q-1.453125 1.0 -1.453125 2.875q0 1.296875 0.609375 1.9375q0.609375 0.625 2.484375 1.3125q1.890625 0.6875 8.25 2.1875q4.265625 1.03125 6.65625 3.5q2.390625 2.453125 2.390625 6.234375q0 4.96875 -3.734375 7.984375q-3.71875 3.015625 -10.5 3.015625q-6.46875 0 -10.546875 -3.1875q-4.078125 -3.203125 -4.078125 -8.828125l0 -0.1875l7.296875 0q0.046875 3.1875 2.125 4.765625q2.09375 1.5625 5.46875 1.5625q3.046875 0 4.859375 -1.109375q1.8125 -1.109375 1.8125 -3.15625q0 -1.65625 -1.390625 -2.71875q-1.390625 -1.078125 -4.46875 -1.84375q-3.9375 -0.890625 -7.15625 -1.890625q-3.203125 -1.0 -5.296875 -3.234375q-2.09375 -2.234375 -2.09375 -5.734375q0 -4.609375 3.6875 -7.484375q3.6875 -2.875 9.15625 -2.875z" fill-rule="nonzero"/></g></svg>