<svg version="1.1" viewBox="0.0 0.0 529.1679790026246 744.4435695538058" fill="none" stroke="none" stroke-linecap="square" stroke-miterlimit="10" xmlns:xlink="http://www.w3.org/1999/xlink" xmlns="http://www.w3.org/2000/svg"><clipPath id="p.0"><path d="m0 0l529.16797 0l0 744.44354l-529.16797 0l0 -744.44354z" clip-rule="nonzero"/></clipPath><g clip-path="url(#p.0)"><path fill="#000000" fill-opacity="0.0" d="m0 0l529.16797 0l0 744.44354l-529.16797 0z" fill-rule="evenodd"/><path fill="#000000" fill-opacity="0.0" d="m9.771653 30.84252l1.2913389 689.16534" fill-rule="evenodd"/><path stroke="#000000" stroke-width="4.0" stroke-linejoin="round" stroke-linecap="butt" stroke-dasharray="16.0,12.0" d="m9.771653 30.84252l1.2913389 689.16534" fill-rule="evenodd"/><path fill="#000000" fill-opacity="0.0" d="m518.105 30.84252l1.2913208 689.16534" fill-rule="evenodd"/><path stroke="#000000" stroke-width="4.0" stroke-linejoin="round" stroke-linecap="butt" stroke-dasharray="16.0,12.0" d="m518.105 30.84252l1.2913208 689.16534" fill-rule="evenodd"/><path fill="#000000" fill-opacity="0.0" d="m493.51837 11.598425l-459.46457 -1.291338" fill-rule="evenodd"/><path stroke="#000000" stroke-width="4.0" stroke-linejoin="round" stroke-linecap="butt" stroke-dasharray="16.0,12.0" d="m493.51837 11.598425l-459.46457 -1.291338" fill-rule="evenodd"/><path fill="#000000" fill-opacity="0.0" d="m493.51837 734.1365l-459.46457 -1.2913208" fill-rule="evenodd"/><path stroke="#000000" stroke-width="4.0" stroke-linejoin="round" stroke-linecap="butt" stroke-dasharray="16.0,12.0" d="m493.51837 734.1365l-459.46457 -1.2913208" fill-rule="evenodd"/><path fill="#000000" fill-opacity="0.0" d="m24.984251 12.603675l-13.921259 11.11811" fill-rule="evenodd"/><path stroke="#000000" stroke-width="4.0" stroke-linejoin="round" stroke-linecap="butt" d="m24.984251 12.603675l-13.921259 11.11811" fill-rule="evenodd"/><path fill="#000000" fill-opacity="0.0" d="m516.30444 22.8084l-15.275574 -9.291339" fill-rule="evenodd"/><path stroke="#000000" stroke-width="4.0" stroke-linejoin="round" stroke-linecap="butt" d="m516.30444 22.8084l-15.275574 -9.291339" fill-rule="evenodd"/><path fill="#000000" fill-opacity="0.0" d="m24.984251 734.1365l-12.9448805 -9.070862" fill-rule="evenodd"/><path stroke="#000000" stroke-width="4.0" stroke-linejoin="round" stroke-linecap="butt" d="m24.984251 734.1365l-12.9448805 -9.070862" fill-rule="evenodd"/><path fill="#000000" fill-opacity="0.0" d="m518.0236 725.1601l-15.433075 8.881897" fill-rule="evenodd"/><path stroke="#000000" stroke-width="4.0" stroke-linejoin="round" stroke-linecap="butt" d="m518.0236 725.1601l-15.433075 8.881897" fill-rule="evenodd"/><path fill="#000000" fill-opacity="0.0" d="m145.15092 305.99213l238.86613 0l0 138.86615l-238.86613 0z" fill-rule="evenodd"/><path fill="#000000" d="m179.71289 326.8065q5.359375 0 8.484375 3.015625q3.140625 3.0 3.140625 7.96875q0 4.953125 -3.140625 7.984375q-3.125 3.015625 -8.484375 3.015625l-8.15625 0l0 12.28125l-7.546875 0l0 -34.265625l15.703125 0zm-2.09375 16.125q3.234375 0 4.8125 -1.21875q1.59375 -1.21875 1.59375 -3.921875q0 -2.625 -1.53125 -3.875q-1.515625 -1.25 -4.84375 -1.25l-6.09375 0l0 10.265625l6.0625 0zm25.953125 -16.125l0 27.9375l16.703125 0l0 6.328125l-24.25 0l0 -34.265625l7.546875 0zm37.984375 0l12.828125 34.234375l-7.828125 0l-2.578125 -7.609375l-12.828125 0l-2.6875 7.640625l-7.625 0l13.015625 -34.265625l7.703125 0zm-3.984375 8.4375l-4.453125 12.578125l8.890625 0l-4.3125 -12.578125l-0.125 0zm20.789062 -8.4375l8.015625 13.515625l7.96875 -13.515625l8.390625 0l-12.703125 21.109375l0 13.15625l-7.546875 0l0 -13.34375l-12.609375 -20.921875l8.484375 0zm34.8125 0l0 34.265625l-7.546875 0l0 -34.265625l7.546875 0zm14.109375 0l14.296875 22.984375l0.09375 0l0 -22.984375l7.046875 0l0 34.265625l-7.515625 0l-14.28125 -22.953125l-0.09375 0l0 22.953125l-7.046875 0l0 -34.265625l7.5 0zm43.421875 -0.828125q5.578125 0 9.703125 3.234375q4.125 3.21875 4.765625 8.859375l-7.203125 0q-0.71875 -2.875 -2.625 -4.3125q-1.890625 -1.453125 -4.609375 -1.453125q-4.484375 0 -6.90625 3.25q-2.421875 3.25 -2.421875 8.515625q0 5.0 2.390625 8.234375q2.40625 3.234375 6.9375 3.234375q3.609375 0 5.703125 -1.84375q2.09375 -1.84375 2.453125 -5.546875l-7.59375 0l0 -5.625l14.40625 0l0 18.546875l-4.796875 0l-0.78125 -3.875q-1.84375 2.328125 -4.1875 3.515625q-2.34375 1.1875 -5.234375 1.1875q-4.890625 0 -8.765625 -2.265625q-3.859375 -2.265625 -5.96875 -6.390625q-2.09375 -4.125 -2.09375 -9.171875q0 -7.921875 4.609375 -13.0q4.625 -5.09375 12.21875 -5.09375z" fill-rule="nonzero"/><path fill="#000000" d="m214.45117 384.4065q6.84375 0 11.078125 4.46875q4.25 4.453125 4.25 12.46875q0 8.015625 -4.15625 12.671875q-4.140625 4.65625 -11.171875 4.65625l-15.015625 0l0 -34.265625l15.015625 0zm-0.578125 27.9375q3.609375 0 5.984375 -2.59375q2.375 -2.59375 2.375 -7.71875q0 -5.9375 -2.484375 -8.609375q-2.484375 -2.6875 -7.1875 -2.6875l-5.578125 0l0 21.609375l6.890625 0zm46.78125 -27.9375l0 6.328125l-18.09375 0l0 7.328125l16.59375 0l0 5.859375l-16.59375 0l0 8.421875l18.46875 0l0 6.328125l-26.015625 0l0 -34.265625l25.640625 0zm20.835938 -0.828125q5.828125 0 9.9375 3.296875q4.125 3.296875 4.828125 9.03125l-7.296875 0q-0.484375 -2.6875 -2.671875 -4.34375q-2.171875 -1.65625 -4.828125 -1.65625q-4.40625 0 -6.859375 3.234375q-2.4375 3.21875 -2.4375 8.53125q0 5.09375 2.421875 8.28125q2.421875 3.1875 6.90625 3.1875q3.25 0 5.265625 -2.0q2.015625 -2.015625 2.484375 -5.671875l7.3125 0q-0.65625 6.546875 -4.75 10.296875q-4.078125 3.734375 -10.3125 3.734375q-4.953125 0 -8.8125 -2.265625q-3.84375 -2.265625 -5.953125 -6.390625q-2.09375 -4.125 -2.09375 -9.171875q0 -7.890625 4.609375 -12.984375q4.625 -5.109375 12.25 -5.109375zm27.75 0.828125l0 14.203125l13.375 -14.203125l9.421875 0l-13.40625 13.515625l14.703125 20.75l-9.46875 0l-10.3125 -15.40625l-4.3125 4.359375l0 11.046875l-7.546875 0l0 -34.265625l7.546875 0z" fill-rule="nonzero"/></g></svg>